<svg xmlns="http://www.w3.org/2000/svg" viewBox="0 0 24 24" fill="none">
  <defs>
    <linearGradient id="gradient" x1="0%" y1="0%" x2="100%" y2="100%">
      <stop offset="0%" style="stop-color:#2563eb"/>
      <stop offset="100%" style="stop-color:#9333ea"/>
    </linearGradient>
  </defs>
  <path fill="url(#gradient)" d="M12 2C7.58 2 4 5.58 4 10c0 2.03.76 3.87 2 5.28V16c0 2.21 1.79 4 4 4v-2c-1.1 0-2-.9-2-2v-1.28c-.61-.55-1-1.34-1-2.22 0-1.66 1.34-3 3-3s3 1.34 3 3c0 .88-.39 1.67-1 2.22V16c0 1.1-.9 2-2 2v2c2.21 0 4-1.79 4-4v-.72c1.24-1.41 2-3.25 2-5.28 0-4.42-3.58-8-8-8z"/>
</svg> 